<?xml version="1.0" encoding="utf-8"?>
<!-- Generator: Adobe Illustrator 24.0.3, SVG Export Plug-In . SVG Version: 6.00 Build 0)  -->
<svg version="1.1" id="diablo_4" xmlns="http://www.w3.org/2000/svg" xmlns:xlink="http://www.w3.org/1999/xlink" x="0px"
	y="0px" width="40px" height="40px" viewBox="0 0 24 24" style="enable-background:new 0 0 24 24;"
	xml:space="preserve">
	<style type="text/css">
		.st0 {
			fill: #EBE9E8;
		}

		.st1 {
			fill: #DD0707;
		}
	</style>
	<path class="st0" d="M9.7,7.3c0.7,0,3.2,0,5.3,0c0.9,0,1.7,0.1,2.2,0.1c0.2,0,0.2,0.1,0.1,0.2S17,7.8,16.8,8s-0.1,0.5,0,0.7
	c0.1,0.3,0.5,1.5,0.8,2.2c0,0,0,0,0,0c-0.1,0.1-0.2,0.6-0.3,0.8c-0.1,0.2-0.2,1.1-0.4,1.7s-0.7,1.6-1.5,2.4
	c-0.8,0.7-1.9,1.2-2.9,1.4c-0.9,0.2-3.1,0.3-4.1,0.3c-0.1,0-0.1,0-0.2-0.1c0,0-0.1-0.1-0.2-0.1c-0.1,0-0.1,0.1-0.2,0.2
	c-0.2,0-1,0.1-1.3,0.1c-0.3,0-1.4,0-1.7,0c0.1-0.1,0.2-0.2,0.6-0.5c0.3-0.3,1.6-0.6,2-0.6c0.2-0.1,0.2-0.2,0.2-0.3
	c0-0.1,0-0.4-0.1-0.5c-0.1-0.1-0.1-0.4-0.1-0.6c0-0.2,0-1.4,0-1.6c0-0.2,0.1-0.3,0.2-0.4s0-0.2-0.1-0.3c-0.1,0-0.1-0.1-0.1-0.2
	s0-1.6,0-1.9c0-0.3,0.5-0.8,0.8-1.1C8.1,9.6,7.9,9.5,7.7,9.5c-0.2,0-0.3,0-0.6-0.1s-1.1-0.7-1.6-1C5.1,8.1,4.4,7.6,4.3,7.5
	C4.2,7.5,4.1,7.3,4.1,7.3C4.8,7.2,8.6,7.3,9.7,7.3z M9,8.3c0.2,0.2,0.8,0.8,1,0.9c0.2,0.1,0.4,0.5,0.4,0.6c-0.2,0-0.7,0-0.8,0
	c-0.1,0-0.2,0-0.2,0.1c0,0.3,0.1,2.1,0.1,2.3c0,0.1,0,0.2,0.1,0.3s0.5,0.5,0.5,0.6c-0.1,0.1-0.4,0.4-0.5,0.5
	c-0.1,0.1-0.1,0.1-0.1,0.3c0,0.2,0,1.1,0,1.2c0,0.2,0.1,0.8,0,0.9c0.4,0,1.6,0,2.2,0c0.6,0,1.3-0.3,1.8-0.8c0.6-0.6,0.7-1.5,0.8-2.1
	c0.1-0.4,0-0.6,0.2-1.1c0-0.4,0-0.9,0-1c0-0.1,0-0.5-0.1-0.7c-0.1-0.2-0.1-0.8-0.5-1.1C14.2,9.2,14.3,9,14.4,9
	c0.1-0.1,0.2-0.2,0-0.2c-0.5-0.2-1.8-0.3-2.6-0.4C11,8.3,9.5,8.3,9,8.3z" />
	<path class="st1" d="M3.9,5.1L2,4.2l0.1,0c0,0,1.7-0.1,2-0.1c0.3,0,0.4,0,0.4,0s0.3,0.1,0.3,0.1l0.8,0l0.4,0c0,0,0.2,0,0.3,0.1
	c0.1,0,1,0,1,0s0.3,0,0.3,0c0,0,0.4,0,0.4,0c0.1,0,0.2,0,0.2,0c0,0,0.3,0,0.3,0s0.4,0,0.4,0c0,0,0.1,0,0.1,0S8.4,4.8,8.3,4.9
	c0,0-0.1,0.1-0.1,0.1L7.9,5.3L7.6,5.8c0,0,0,0.1,0,0.2c0,0,0,0.3,0,0.6c-0.9,0-1.8,0-2.5,0c-0.1,0-0.1,0-0.2,0c0-0.1,0-0.3,0-0.3
	s0,0,0-0.1c0,0-0.1-0.3-0.1-0.3s0-0.1,0-0.1c0,0-0.4-0.5-0.4-0.5S4.1,5.1,4.1,5.1S4,5.1,3.9,5.1z M6.8,10.1C6.4,9.9,5.5,9.3,5.1,9
	C5.1,9,5,8.9,4.9,8.9c0,0.3,0,0.7,0,0.8c0,0.1,0,0.2,0,0.2C5,9.9,5,9.9,5,9.9s0,0.1,0,0.2c0,0.1,0,0.1,0,0.2c0,0,0,0.1,0,0.1
	s0.3,1.1,0.3,1.3c0,0.2,0.2,1,0.2,1c0,0.1,0.2,1.9,0.3,2.2c0,0.1,0.1,0.7,0.2,1.3C6.1,16,6.4,16,6.6,15.9c0-0.2-0.1-0.4-0.1-0.7
	c0-0.1,0-0.6,0-1.2c0-0.2,0-0.4,0-0.5c0-0.2,0-0.4,0.1-0.5c-0.1-0.1-0.1-0.3-0.1-0.4c0-0.4,0-1.6,0-2C6.6,10.5,6.7,10.3,6.8,10.1z
	 M7.4,18.4c-0.3,0-0.7,0-0.9,0c-0.1,0-0.1,0-0.2,0c0,0.3,0,0.5,0.1,0.5c0,0.1,0.1,1.3,0.1,1.3c0,0.1,0.1,0.3,0.1,0.3s0,0.2,0.1,0.3
	c0,0.1,0,0.4,0.1,0.7c0.1,0.3,0.1,0.3,0.1,0.3s0.3-1.7,0.5-2.6c0-0.3,0.1-0.5,0.1-0.5c0-0.1,0-0.1,0-0.1c0,0,0-0.1,0-0.1
	C7.3,18.6,7.4,18.5,7.4,18.4z M9.5,4.6c0,0.1,0.2,0.2,0.2,0.3c0,0,0.1,0.1,0.1,0.1l0.4,0.5c0,0,0.7,0.6,0.7,0.6c0,0,0.1,0.1,0.1,0.2
	c0,0,0,0.1,0.1,0.2c0,0,0,0,0,0.1c0.5,0,1.1,0,1.7,0c0.2,0,0.5,0,0.7,0c0,0,0-0.1,0-0.2c0-0.2,0.1-0.2,0.2-0.3
	c0.1-0.1,0.2-0.2,0.2-0.2c0.1-0.1,0.4-0.5,0.4-0.6c0,0,0.3-0.4,0.6-0.5c0.2-0.2,0.4-0.4,0.4-0.4c-0.2,0-0.4,0-0.4,0s-0.1,0-0.2,0
	c-0.1,0-0.3,0-0.4,0c-0.1,0-0.5,0.1-0.6,0.1c-0.2,0-0.5,0-0.5,0s-0.1,0-0.2,0c-0.1,0-0.3-0.1-0.3-0.1c-0.1,0-0.6,0-0.7,0
	c-0.1,0-0.3,0-0.3,0s-0.1,0-0.1,0c0,0-0.7,0-0.7,0c0,0-0.2,0.1-0.2,0.1c-0.1,0-0.4,0-0.4,0c0,0-0.1,0-0.1,0c0,0,0,0,0,0
	c-0.1,0-0.2,0-0.2,0c0,0-0.3,0-0.3,0c-0.1,0-0.4,0-0.4,0c0,0,0,0,0,0.1C9.3,4.4,9.4,4.5,9.5,4.6z M11.9,9.1C12,9.2,12,9.2,11.9,9.1
	c0.1,0.1,0.1,0.3,0.1,0.4c0,0.1,0.1,0.1,0.1,0.1c0,0,0,0.2,0,0.2l0.2,0.7l0.2,0.9c0,0.1,0.3,0.8,0.3,0.8c0,0,0.3,1,0.3,1
	c0,0,0.2,0.3,0.3,0.7c0.1-0.3,0.1-0.5,0.2-0.8l0-0.1c0-0.1,0-0.1,0-0.2c0-0.2,0-0.5,0.2-0.9c0-0.3,0-0.6,0-0.8c0,0,0-0.1,0-0.1
	c0-0.1,0-0.3-0.1-0.5c0-0.1,0-0.1,0-0.2c0-0.1-0.1-0.4-0.2-0.5l-0.7-0.6L13,9.2C12.6,9.2,12.3,9.2,11.9,9.1z M22,2.1
	C22,2.1,22,2.1,22,2.1l-0.8,1.4c0,0.1,0,0.1-0.1,0.1c0,0,0,0.1,0,0.1c0,0,0,0,0,0.1c0,0.1-0.6,1.2-0.7,1.4c-0.1,0.2-0.8,1.7-0.9,2
	c-0.1,0.2-0.7,1.7-0.9,1.9c-0.1,0.2-0.3,0.8-0.5,1.2c0.1,0.2,0.1,0.3,0.2,0.5c0,0,0,0.1,0,0.1l0.1,0.3l-0.2,0.3
	c0,0.1-0.1,0.4-0.2,0.5c0,0,0,0.1,0,0.2c-0.1,0.4-0.2,1-0.4,1.5c-0.1,0.3-0.6,1.7-1.7,2.7c-0.4,0.4-0.8,0.7-1.2,0.9
	c0.1,0.4,0.2,0.8,0.3,0.9c0.1,0.2,0.4,1.1,0.5,1.4c0.1,0.3,0.3,1,0.3,1c0.1,0.2,0.1,0.4,0.1,0.4c0,0,0.1,0,0.1,0s0.1-0.1,0.1-0.1
	c0,0,0-0.1,0-0.1c0,0,0.1-0.1,0.1-0.1s0.2-0.5,0.2-0.6c0,0,0.1-0.1,0.1-0.1c0,0,0,0,0,0s0.2-0.3,0.2-0.3c0,0,0.1-0.2,0.1-0.2
	c0,0,0.1-0.1,0.1-0.1c0,0,0,0,0,0s0.2-0.7,0.2-0.8c0-0.2,0.3-1,0.3-1.1c0-0.1,0.1-0.2,0.1-0.2c0,0,0.1-0.6,0.2-0.6c0,0,0-0.1,0-0.1
	c0,0,0.4-0.7,0.5-0.8c0.1-0.1,0-0.2,0-0.2s0.1-0.1,0.1-0.1s0-0.1,0-0.1s0.1-0.1,0.1-0.1c0,0,0.1-0.1,0.1-0.1c0,0,0.2-0.8,0.3-0.9
	c0-0.1,0.1-0.1,0.1-0.2c0-0.1,0.3-0.8,0.3-1c0.1-0.2,0.3-1.1,0.4-1.3c0.1-0.2,0.2-0.7,0.2-0.8c0-0.1,0-0.2,0-0.2
	c0,0-0.1-0.1-0.1-0.2c-0.1-0.1,0-0.2,0-0.3c0-0.1,0-0.1,0-0.1c0,0,0-0.1,0-0.1c0,0,0.1-0.2,0.1-0.2c0,0,0.1-0.5,0.1-0.5l0.3-1.1
	l0.1-0.4c0-0.1,0-0.1,0-0.1c0,0,0-0.1,0-0.2c0-0.1,0.2-0.6,0.2-0.7c0-0.1,0.1-0.2,0.1-0.3c0-0.1,0.1-0.3,0.2-0.5s0.1-0.2,0.1-0.3
	c0-0.1,0.1-0.2,0.1-0.2c0-0.1,0-0.2,0-0.2C21,5,21,4.8,21,4.8c0,0,0.1-0.2,0.1-0.3c0.1-0.1,0.1-0.3,0.2-0.4c0-0.1,0.1-0.2,0.1-0.3
	c0-0.1,0.1-0.2,0.1-0.3c0-0.1,0.1-0.3,0.1-0.3c0-0.1,0.1-0.2,0.1-0.2c0,0,0.1-0.1,0.1-0.2c0,0,0-0.2,0-0.2c0-0.1,0.1-0.1,0-0.1
	C21.9,2.5,22,2.2,22,2.1z" />
</svg>