<svg width="48" height="48" viewBox="0 0 48 48" fill="none" xmlns="http://www.w3.org/2000/svg">
<g clip-path="url(#clip0_1641_233)">
<path d="M24.2371 36.8922C33.5719 36.8922 41.1393 29.3249 41.1393 19.9901C41.1393 10.6553 33.5719 3.08789 24.2371 3.08789C14.9023 3.08789 7.33496 10.6553 7.33496 19.9901C7.33496 29.3249 14.9023 36.8922 24.2371 36.8922Z" fill="#010100"/>
<path d="M39.857 11.0145V6.31297H35.952C32.8047 3.63193 28.7249 2 24.2565 2C19.7881 2 15.6889 3.63193 12.561 6.31297H8.63658V10.9951C7.10179 13.6567 6.22754 16.7068 6.22754 19.9901C6.22754 23.254 7.10179 26.3236 8.63658 28.9658V33.6479H12.5416C15.6889 36.3289 19.7687 37.9608 24.2371 37.9608C28.7055 37.9608 32.7853 36.3289 35.9326 33.6479H39.8376V28.9658C41.353 26.3236 42.2467 23.254 42.2272 19.9901C42.2467 16.7263 41.3724 13.6567 39.857 11.0145ZM24.2565 35.2604C15.8054 35.2604 8.94743 28.4218 8.94743 19.9707C8.94743 11.539 15.8054 4.68103 24.2565 4.68103C32.7076 4.68103 39.5656 11.5196 39.5656 19.9707C39.5462 28.4218 32.7076 35.2604 24.2565 35.2604Z" fill="#A43B00"/>
<path d="M27.7343 24.8276C27.7148 24.8082 27.676 24.7888 27.6954 24.7111L24.4898 12.1024C23.3436 16.26 22.5276 20.5341 21.2843 24.6722L21.2454 24.5945C21.2454 24.5945 19.1083 14.4726 18.8946 13.2875C18.6809 12.1024 19.3026 10.8202 19.3026 10.8202H13.0469C13.824 11.2088 14.232 12.083 14.5234 12.8213L18.4478 29.704C18.5449 30.4423 17.9815 31.1417 17.4181 31.7634H23.7127C23.4796 31.1611 23.2659 30.5977 23.2659 29.8983L24.6258 23.7397C25.0144 25.5853 25.4029 27.4115 25.7915 29.2572C26.0246 30.0926 25.8692 31.0251 25.5195 31.7634H31.7753C31.445 31.1805 30.9399 30.3451 31.0564 29.4515L33.5043 14.5503C33.8152 12.8407 34.6506 11.9664 35.4665 10.8008C33.446 10.8202 31.5033 10.8396 29.2885 10.8396C30.0656 11.5585 29.6382 12.7241 29.5799 13.5984L27.7343 24.8276Z" fill="#FEAF51"/>
<path d="M13.7599 44.9803L13.7299 44.7303C13.7299 44.7303 13.7099 44.5503 13.6599 44.4803C13.6099 44.4203 13.5799 44.2903 13.5799 44.2903L13.4499 44.0803C13.4499 44.0803 13.4499 44.3303 13.4099 44.5603C13.3699 44.7903 13.3099 44.8203 13.2799 44.9103C13.2499 44.9903 13.2299 45.0503 13.2299 45.0503L13.1899 45.1303C13.1899 45.1303 13.1599 45.1603 13.1399 45.2003C13.1099 45.2403 13.0999 45.2903 13.0999 45.2903C13.0999 45.2903 13.0699 45.2603 13.0299 45.3203C12.9899 45.3803 12.9799 45.3803 12.9399 45.4003C12.8999 45.4203 12.8599 45.4503 12.8299 45.4503C12.7999 45.4503 12.7299 45.4503 12.6399 45.5103C12.5499 45.5703 12.4599 45.5903 12.4599 45.5903C12.4599 45.5903 12.2599 45.6503 12.1999 45.6603C12.1399 45.6603 12.0899 45.6903 12.0899 45.6903L12.0699 45.7503L12.0299 45.7303L12.0099 45.7003C12.0099 45.7003 11.8399 45.7003 11.7599 45.7003C11.6799 45.7203 11.5999 45.7203 11.5999 45.7203C11.5999 45.7203 11.3799 45.7203 11.3399 45.7203C11.2999 45.7203 11.2099 45.7203 11.1999 45.6903C11.1799 45.6703 11.1799 45.6003 11.1799 45.6003C11.1799 45.6003 11.2199 45.5103 11.2099 45.4603C11.1999 45.4203 11.1799 45.3703 11.1799 45.3703V45.3403L11.1999 45.3103V45.2803L11.1899 45.2003V45.1103L11.1799 45.0503H11.1199L11.0599 45.0803L11.0299 45.0503L10.9599 45.1003C10.9599 45.1003 10.9299 45.1003 10.9199 45.0703C10.8999 45.0303 10.8299 44.9603 10.8799 44.9303C10.9133 44.9103 10.9399 44.9103 10.9599 44.9303C10.9599 44.9303 11.0299 45.0103 11.0599 44.9603C11.0899 44.9203 11.1399 44.9103 11.1399 44.9103L11.1899 44.8403L11.2199 44.8203C11.2199 44.8203 11.2299 44.5003 11.2299 44.4103C11.2299 44.3203 11.1699 44.2603 11.1699 44.1903C11.1699 44.1203 11.1899 43.9203 11.1899 43.7603C11.1899 43.6003 11.1799 43.2303 11.1899 43.1603C11.1999 43.0903 11.2399 43.0803 11.2499 43.0303C11.2599 42.9803 11.2499 42.8303 11.2499 42.7903C11.2499 42.7503 11.2099 42.7303 11.2399 42.6703C11.2699 42.6103 11.2699 42.5303 11.2699 42.5303C11.2699 42.5303 11.2599 42.1803 11.2799 42.0003C11.3099 41.8203 11.3799 41.7603 11.4499 41.6903C11.5199 41.6103 11.5699 41.5803 11.6099 41.5503C11.6499 41.5203 11.7499 41.4803 11.7499 41.4803L11.7699 41.4203L11.7999 41.4403C11.7999 41.4403 11.8599 41.3903 11.8899 41.3703C11.9199 41.3503 12.0199 41.3003 12.0199 41.2603C12.0199 41.2203 12.0599 41.2203 12.0599 41.2203C12.0599 41.2203 11.7699 41.2003 11.6599 41.2203C11.5499 41.2303 11.5299 41.2803 11.4599 41.2503C11.3899 41.2303 11.1499 41.2503 11.1499 41.2503H11.0799L10.9899 41.2203L10.9599 41.2403L10.9299 41.3103L10.8799 41.3603L10.8199 41.4503V41.5403C10.8199 41.5403 10.7799 41.4303 10.7799 41.3903C10.7799 41.3503 10.7699 41.2903 10.7699 41.2903L10.7299 41.2603C10.7299 41.2603 10.6299 41.2703 10.5399 41.2603C10.4499 41.2403 10.3699 41.2803 10.3699 41.2803L10.2799 41.3503H10.1699L10.1299 41.2703C10.1299 41.2703 10.0699 41.2703 10.0199 41.2703H9.81992L9.72992 41.2503H9.56992C9.56992 41.2503 9.56992 41.2703 9.46992 41.2503C9.36992 41.2303 9.27992 41.2503 9.27992 41.2503C9.27992 41.2503 9.36992 41.3103 9.39992 41.3503L9.43992 41.3903C9.43992 41.3903 9.45992 41.4203 9.50992 41.4503C9.55992 41.4903 9.62992 41.5803 9.62992 41.5803L9.68992 41.6403C9.68992 41.6403 9.76992 41.6703 9.79992 41.7403C9.82992 41.8203 9.84992 41.8803 9.87992 42.0103C9.90992 42.1403 9.91992 42.2703 9.91992 42.2703L9.95992 42.3503L9.93992 42.4303C9.93992 42.4303 9.93992 42.4703 9.93992 42.6003C9.93992 42.7303 9.98992 42.8703 9.98992 42.8703V43.2503C9.98992 43.3703 9.98992 43.5503 9.98992 43.5503V43.7403C9.98992 43.7403 10.0299 44.0503 10.0099 44.1403C9.98992 44.2303 10.0099 44.3303 10.0099 44.3303C10.0099 44.3303 10.0399 44.4303 10.0099 44.5003C10.0099 44.5003 10.0099 44.8903 9.98992 44.9903C9.98992 45.0903 9.98992 45.3803 9.95992 45.4803C9.92992 45.5803 9.84992 45.7503 9.81992 45.8003C9.78992 45.8503 9.61992 46.0703 9.61992 46.0703C9.61992 46.0703 9.50992 46.1203 9.40992 46.1903C9.29992 46.2503 9.21992 46.3103 9.21992 46.3103L9.08992 46.3903C9.08992 46.3903 9.08992 46.4203 9.15992 46.4203C9.22992 46.4203 9.33992 46.4303 9.40992 46.4303C9.47992 46.4303 9.62992 46.3903 9.62992 46.3903L9.70992 46.3403C9.70992 46.3403 9.87992 46.2903 9.91992 46.3003C9.95992 46.3103 10.0299 46.3103 10.0299 46.3103L10.3799 46.3503C10.3799 46.3503 10.9499 46.3903 10.9999 46.3603C11.0499 46.3303 11.1999 46.3603 11.1999 46.3603C11.1999 46.3603 11.2599 46.3103 11.2899 46.3203C11.3199 46.3203 11.3699 46.3403 11.3999 46.3303C11.4299 46.3303 11.5599 46.4103 11.5599 46.3703C11.5599 46.3303 11.5399 46.2403 11.6499 46.2503L11.7299 46.2103L11.7699 46.2503L11.7199 46.2903L11.7699 46.3403C11.7699 46.3403 11.8999 46.3103 11.9599 46.3103C12.0199 46.3103 12.2699 46.3503 12.3299 46.3403C12.3899 46.3203 12.5899 46.3703 12.5899 46.3703C12.5899 46.3703 12.6499 46.3103 12.6799 46.3203C12.7099 46.3203 13.0299 46.3203 13.0299 46.3203C13.0299 46.3203 13.1799 46.3103 13.2499 46.3103C13.3199 46.3103 13.4399 46.4103 13.4899 46.4803C13.4899 46.4803 13.5899 46.2503 13.6499 46.0903C13.7199 45.9303 13.7499 45.6603 13.7699 45.5603C13.7899 45.4603 13.8199 45.3303 13.8199 45.3303C13.8199 45.3303 13.8499 45.3203 13.8399 45.1903C13.8399 45.0603 13.8399 44.9303 13.8399 44.9303L13.7599 44.9803ZM21.3399 46.0403C21.3399 46.0403 21.2799 45.9603 21.1399 45.8503C20.9999 45.7403 20.9699 45.6603 20.9699 45.6603L20.9099 45.5303L20.8899 45.4203L20.8299 45.3603L20.7999 45.2703L20.7499 45.2303L20.6999 45.0903C20.6999 45.0903 20.5999 44.7203 20.5199 44.5703C20.4399 44.4103 20.3499 44.1903 20.3499 44.1903C20.3499 44.1903 20.2599 43.9803 20.2399 43.9103C20.2199 43.8403 20.1799 43.7703 20.1799 43.7703L20.1199 43.7003L20.0599 43.7203H19.9699L19.9899 43.6003L20.0599 43.5103V43.3803L19.9999 43.2803C19.9999 43.2803 19.8399 43.0803 19.8199 42.9803C19.7899 42.8803 19.6999 42.6903 19.6999 42.6903L19.6399 42.5003C19.6399 42.5003 19.5299 42.1603 19.5199 42.1203C19.5199 42.0903 19.4099 41.8103 19.3699 41.7603L19.3099 41.5703C19.3099 41.5703 19.3099 41.4103 19.2499 41.3903C19.1899 41.3703 19.1499 41.3503 19.1499 41.3503L19.1099 41.2503C19.1099 41.2503 18.9799 41.0103 18.9599 40.9403C18.9599 40.9403 18.7399 41.1803 18.6999 41.2303C18.6599 41.2703 18.5399 41.3703 18.5399 41.3703C18.5399 41.3703 18.3599 41.4503 18.2899 41.5103C18.2299 41.5803 18.1499 41.6303 18.1499 41.6303C18.1499 41.6303 17.8699 41.7903 17.8199 41.8303C17.7599 41.8703 17.7299 41.9103 17.7299 41.9103L17.6599 42.0003H17.5899C17.5899 42.0003 17.4099 42.1303 17.3599 42.1903C17.3099 42.2503 17.1899 42.3303 17.1699 42.4303C17.1699 42.4303 17.3899 42.3303 17.4499 42.3203C17.5099 42.3103 17.6199 42.2903 17.6199 42.2903L17.6999 42.2503L17.8799 42.2303C17.8799 42.2303 17.9399 42.1903 18.0099 42.2303C18.0799 42.2703 18.1099 42.2503 18.1799 42.2603C18.2399 42.2703 18.3099 42.3203 18.3099 42.3203L18.3499 42.3603C18.3499 42.3603 18.3899 42.3703 18.4199 42.4203C18.4599 42.4603 18.4799 42.5403 18.4799 42.5403C18.4799 42.5403 18.4399 42.6203 18.4099 42.6503C18.3699 42.6803 18.3299 42.7503 18.3299 42.7503L18.2699 42.8103C18.2699 42.8103 18.2699 42.7803 18.1999 42.8203C18.1199 42.8603 18.0599 42.9203 18.0599 42.9203L18.0199 42.9403C18.0199 42.9403 17.9599 42.9803 17.9299 43.0403C17.9033 43.0803 17.8833 43.1203 17.8699 43.1603C17.8399 43.2303 17.8299 43.2803 17.8299 43.2803C17.8299 43.2803 17.8299 43.2703 17.7699 43.3403C17.7199 43.4103 17.7299 43.4603 17.6799 43.5003L17.6199 43.5303C17.6199 43.5303 17.6199 43.6003 17.5899 43.7003C17.5599 43.8003 17.4999 43.9003 17.4999 43.9003C17.4999 43.9003 17.4299 44.0003 17.4399 44.0403C17.4399 44.0803 17.4399 44.1303 17.4399 44.1303H17.3699C17.3699 44.1303 17.2899 44.3503 17.2799 44.3903V44.4203L17.1199 44.4103C17.1199 44.4103 16.9499 44.4103 16.8199 44.4203C16.6899 44.4303 16.7999 44.4303 16.7999 44.4303L16.6599 44.4603C16.6599 44.4603 16.5899 44.4603 16.4999 44.4903C16.4199 44.5203 16.3099 44.5603 16.3099 44.5603C16.3099 44.5603 16.2899 44.6303 16.4099 44.6703C16.5299 44.7103 16.6899 44.7503 16.6899 44.7503C16.6899 44.7503 16.7599 44.7903 16.8599 44.8103C16.9499 44.8203 16.8899 44.8303 16.8899 44.8303C16.8899 44.8303 16.9499 44.8303 16.9799 44.8603L17.0199 44.8903L16.9399 44.9503L17.1299 44.9703C17.1299 44.9703 16.9599 45.4003 16.9099 45.5203C16.8599 45.6403 16.7599 45.7603 16.7599 45.7603C16.7599 45.7603 16.7599 45.7303 16.6399 45.8603C16.5099 45.9903 16.3299 46.1403 16.2499 46.1803C16.1699 46.2203 16.0999 46.2703 16.0999 46.2703C16.0999 46.2703 16.0099 46.3003 15.9699 46.3803C15.9699 46.3803 16.1499 46.4203 16.2399 46.4403C16.3199 46.4503 16.4399 46.4303 16.4399 46.4303C16.4399 46.4303 16.5499 46.4103 16.6499 46.4103C16.7499 46.4103 16.8899 46.4303 16.8899 46.4303L17.0599 46.4503H17.1899C17.1899 46.4503 17.2499 46.4803 17.4099 46.4803C17.5699 46.4803 17.7799 46.4903 17.7799 46.4903H18.1299L18.2499 46.5003C18.2499 46.5003 18.1399 46.4003 18.0699 46.3603C17.9999 46.3203 17.8999 46.2403 17.8999 46.2403C17.8999 46.2403 17.7799 46.1803 17.7699 46.1203C17.7699 46.0503 17.8099 45.8603 17.8099 45.8603V45.7403C17.8099 45.7403 17.7699 45.6503 17.7899 45.5603C17.8099 45.4703 17.8299 45.3203 17.8299 45.3203L17.8899 44.9803L17.9899 45.0603H18.1499C18.2299 45.0603 18.3499 45.0403 18.4299 45.0603C18.5099 45.0803 18.7799 45.0903 18.9099 45.0903C19.0399 45.0903 19.0799 45.0903 19.1299 45.1003C19.1799 45.1103 19.2099 45.1303 19.2699 45.1303C19.3299 45.1303 19.3499 45.1303 19.4899 45.1203C19.6299 45.1103 19.6599 45.0803 19.6599 45.0803H19.7399C19.7399 45.0803 19.7599 45.1503 19.7599 45.2503C19.7599 45.3503 19.7799 45.4403 19.7799 45.5903V45.8503C19.7799 45.8503 19.8299 45.9103 19.7299 46.0203C19.6299 46.1303 19.5599 46.2503 19.5599 46.2503C19.5599 46.2503 19.4999 46.3203 19.4199 46.3903L19.3599 46.4303C19.3599 46.4303 19.4299 46.4303 19.5199 46.4603C19.5999 46.4903 19.7199 46.4403 19.7199 46.4403C19.7199 46.4403 19.8799 46.4403 19.9699 46.4203C20.0499 46.4003 20.3499 46.4803 20.3899 46.4803C20.4299 46.4803 20.6299 46.4903 20.6299 46.4903C20.6299 46.4903 20.7899 46.4303 20.9199 46.4503C21.0599 46.4603 21.1199 46.4603 21.1199 46.4603C21.1199 46.4603 21.2599 46.4903 21.2999 46.4503C21.3499 46.4103 21.3999 46.4603 21.3999 46.4603L21.4799 46.4803H21.6399C21.6399 46.4803 21.8299 46.4903 21.8899 46.4903H22.0299C22.0299 46.4903 21.7599 46.2603 21.6499 46.1903C21.5399 46.1203 21.3499 46.0303 21.3499 46.0303L21.3399 46.0403ZM19.0599 44.1903C18.9799 44.1903 18.8599 44.2103 18.8599 44.2103H18.6999L18.6399 44.2703L18.5799 44.2903C18.5799 44.2903 18.5999 44.3203 18.5499 44.3303C18.4999 44.3403 18.4599 44.3603 18.4599 44.3603C18.4599 44.3603 18.3799 44.3603 18.3799 44.3203C18.3799 44.2803 18.3199 44.2203 18.3199 44.2203H18.2499L18.2299 44.1403H18.1399C18.1399 44.1403 18.2499 43.8203 18.3399 43.7003C18.4299 43.5803 18.5099 43.3103 18.5099 43.3103C18.5099 43.3103 18.5699 43.1503 18.6199 43.1003C18.6699 43.0403 18.7199 42.9103 18.7199 42.9103C18.7199 42.9103 18.8999 43.1903 18.9399 43.2803C18.9799 43.3703 18.9999 43.4203 18.9999 43.4203C18.9999 43.4203 19.0199 43.5203 19.0599 43.6003C19.0999 43.6803 19.1399 43.8003 19.1399 43.8003L19.2399 43.9903L19.2999 44.1603C19.2999 44.1603 19.1299 44.1903 19.0499 44.1903H19.0599ZM39.3399 41.6603C39.5399 41.5503 39.7299 41.4303 39.9299 41.3103C39.9299 41.2903 39.9299 41.2703 39.9299 41.2403C39.6999 41.2403 39.4699 41.2403 39.2499 41.2403C39.2399 41.2403 39.2299 41.2603 39.2199 41.2603C39.1099 41.2803 38.9999 41.3103 38.8899 41.3103C38.7599 41.3103 38.6299 41.2703 38.4899 41.2803C38.2699 41.2803 38.0499 41.3303 37.8399 41.3403C37.6899 41.3503 37.5399 41.3403 37.3899 41.3403C37.4699 41.4503 37.5599 41.5303 37.6599 41.6003C37.7999 41.6903 37.8499 41.8403 37.8599 42.0303C37.8599 42.2803 37.9699 42.2803 38.0999 42.4603C37.9799 42.6703 37.8799 42.2803 37.8799 42.5603C37.8799 42.6903 37.8599 43.2103 37.8599 43.3403C37.8499 43.7403 37.8299 44.1403 37.8299 44.5403C37.8299 44.8803 37.8699 45.2103 37.8799 45.5503C37.8799 46.0303 37.8099 46.1603 37.4599 46.3503C37.3599 46.4103 37.2599 46.4903 37.1599 46.5503C37.1599 46.5503 37.1699 46.5703 37.1799 46.5703C37.4799 46.5703 37.8099 46.6603 38.0699 46.5403C38.3799 46.4003 38.6599 46.6303 38.9399 46.5403C38.9499 46.5403 39.3799 46.5603 39.3899 46.5603C39.5999 46.5803 39.3099 46.4703 39.5199 46.4803C39.5599 46.4803 39.7099 46.5803 39.7499 46.5803C39.7499 46.5703 39.7699 46.5503 39.7699 46.5303C39.6899 46.4403 39.6199 46.3603 39.5399 46.2703C39.4599 46.1803 39.3699 46.1003 39.2999 46.0003C39.1999 45.8603 39.1199 45.7003 39.1699 45.5003C39.2199 45.3103 39.2299 45.1203 39.2099 44.9103C39.1899 44.5803 39.1899 44.2603 39.1799 43.9303C39.1599 43.5403 39.1299 43.1603 39.1299 42.7703C39.1299 42.4703 39.1999 42.1703 39.2199 41.8703C39.2199 41.7503 39.2599 41.6803 39.3499 41.6403L39.3399 41.6603ZM27.0299 43.8203C26.9099 43.7503 26.8099 43.6203 26.6799 43.5603C26.5599 43.5103 26.4399 43.4703 26.3199 43.4403C26.1999 43.4103 26.0999 43.2603 25.9899 43.2503C25.9899 43.0603 25.8599 43.1403 25.7799 43.1503C25.7799 43.1303 25.7799 43.1003 25.7799 43.0703C25.6399 43.0703 25.5099 42.8703 25.3799 42.7903C25.2399 42.7003 25.0599 42.5703 24.9099 42.5603C24.8899 42.3503 25.1399 41.9703 25.2899 41.9003C25.3799 41.8603 25.5199 41.8303 25.6099 41.8003C25.7499 41.7503 25.8799 41.8103 26.0299 41.8003C26.0299 41.7603 26.1299 41.7103 26.1199 41.7803C26.2599 41.7803 26.4299 41.8303 26.5699 41.8703C26.6399 41.8903 26.6799 41.9403 26.7299 41.9903C26.7999 42.0603 26.8599 42.0603 26.9499 42.1103C27.0899 42.1903 27.1899 42.4303 27.2799 42.5703C27.3499 42.6803 27.4499 42.7803 27.4699 42.9403C27.4499 42.6703 27.4299 42.3803 27.4099 42.1003C27.3999 41.9703 27.3699 41.8503 27.3499 41.7203C27.3199 41.5303 27.3499 41.3203 27.3299 41.1403C27.0799 41.4103 26.6999 41.2903 26.3899 41.3303C26.0299 41.3803 25.6999 41.2603 25.3499 41.3003C25.2699 41.3003 25.2199 41.3703 25.1699 41.3803C25.1099 41.4003 25.0599 41.3603 24.9999 41.3603C24.8499 41.3803 24.6699 41.5003 24.5499 41.6103C24.3099 41.8103 24.1199 41.9603 23.9699 42.2903C23.9099 42.4103 23.8299 42.5403 23.7899 42.6803C23.7499 42.7903 23.7699 42.9903 23.7199 43.1003C23.6999 43.1503 23.6399 43.1803 23.5899 43.2203C23.6799 43.3103 23.8299 43.3303 23.9299 43.3603C24.0199 43.3903 24.1199 43.4703 24.1999 43.4903C24.2599 43.5003 24.3099 43.4803 24.3699 43.4903C24.3499 43.7103 24.6099 43.8203 24.7399 43.9303C24.8299 44.0003 24.9099 44.0303 24.9899 44.0903C25.0699 44.1403 25.1399 44.2603 25.2299 44.2803C25.2299 44.2603 25.2299 44.2503 25.2299 44.2403C25.3299 44.2603 25.3999 44.3403 25.4999 44.3503C25.5999 44.3503 25.7099 44.3403 25.7099 44.5403C25.8699 44.5403 26.0199 44.7303 26.1699 44.8103C26.3099 44.8803 26.4899 45.0903 26.6299 45.1003C26.4999 45.3603 26.3599 45.6103 26.1299 45.7503C25.9499 45.8603 25.8499 45.8503 25.6499 45.8803C25.6199 45.8803 25.5899 45.9303 25.5599 45.9303C25.5299 45.9303 25.4999 45.8803 25.4699 45.9003C25.4099 45.9303 25.3899 45.9403 25.4299 46.0403C25.4099 46.0303 25.3899 46.0403 25.3699 46.0403C25.3899 46.1003 25.3699 46.2603 25.3199 46.2803C25.3199 46.1903 25.3199 46.0203 25.3199 45.9303C25.1699 45.8903 24.9699 45.9003 24.8399 45.7703C24.6899 45.6303 24.5299 45.4603 24.3599 45.3003C24.2699 45.2103 24.1999 45.1903 24.1399 45.0703C24.1199 45.0303 24.1199 44.9703 24.0899 44.9303C24.0699 44.9003 24.0199 44.9003 24.0099 44.8803C23.9499 44.7603 23.8999 44.5103 23.8799 44.3703C23.8799 44.5403 23.8299 44.7103 23.8099 44.8703C23.7899 45.0303 23.7999 45.2003 23.7799 45.3603C23.7499 45.6703 23.6799 46.0103 23.5799 46.2803C23.6799 46.1803 23.7299 46.0403 23.8699 46.0103C24.0299 45.9703 24.1499 46.1003 24.2999 46.1403C24.5399 46.2003 24.7599 46.3803 24.9999 46.4303C25.1399 46.4603 25.2499 46.4303 25.3899 46.5003V46.5103C25.5899 46.5103 25.7899 46.4603 25.9999 46.4603C26.2699 46.4603 26.5299 46.3003 26.7699 46.1603C26.8799 46.0903 26.9299 45.9803 27.0399 45.9003C27.1499 45.8203 27.1899 45.7703 27.2699 45.6603C27.3899 45.5003 27.5499 45.3903 27.5299 45.1103C27.6199 45.1103 27.6899 44.8703 27.7199 44.7703C27.7499 44.6703 27.7399 44.6103 27.7999 44.5403C27.8499 44.4803 27.9799 44.4303 28.0399 44.4303C27.8999 44.3703 27.7799 44.2303 27.6399 44.1603C27.4299 44.0503 27.2099 43.9803 27.0099 43.8603L27.0299 43.8203ZM23.5499 43.2303C23.5499 43.2303 23.5699 43.2103 23.5799 43.2003C23.5799 43.2003 23.5699 43.1903 23.5599 43.1803V43.2303H23.5499ZM33.6199 43.8203C33.4999 43.7503 33.3999 43.6203 33.2699 43.5603C33.1499 43.5103 33.0299 43.4703 32.9099 43.4403C32.7999 43.4103 32.8899 43.4103 32.7799 43.3903C32.7799 43.2003 32.6499 43.2803 32.5699 43.2903C32.5699 43.2703 32.5699 43.2403 32.5699 43.2103C32.4299 43.2103 32.0999 42.8703 31.9699 42.7903C31.8299 42.7003 31.6499 42.5703 31.4999 42.5603C31.4799 42.3503 31.7299 41.9703 31.8799 41.9003C31.9699 41.8603 32.0999 41.8303 32.1999 41.8003C32.3399 41.7503 32.4699 41.8103 32.6099 41.8003C32.6099 41.7603 32.4899 41.6503 32.4899 41.6203C32.5399 41.6703 32.7099 41.7103 32.6999 41.7803C32.8399 41.7803 33.0099 41.8303 33.1499 41.8703C33.2199 41.8903 33.2599 41.9403 33.3099 41.9903C33.3799 42.0603 33.4399 42.0603 33.5299 42.1103C33.6699 42.1903 33.7699 42.4303 33.8599 42.5703C33.9299 42.6803 34.1299 42.8003 34.1599 42.9703C34.1399 42.7003 34.0199 42.3803 33.9899 42.1103C33.9799 41.9803 33.9499 41.8603 33.9299 41.7303C33.8999 41.5403 33.9299 41.3303 33.9099 41.1503C33.6599 41.4203 33.2799 41.3003 32.9799 41.3403C32.6199 41.3903 32.2999 41.2703 31.9399 41.3103C31.8599 41.3103 31.8699 41.4503 31.8099 41.4703C31.7499 41.4903 31.6399 41.3703 31.5799 41.3803C31.4299 41.4003 31.2499 41.5203 31.1299 41.6303C30.8899 41.8303 30.6999 41.9803 30.5499 42.3103C30.4899 42.4303 30.4099 42.5603 30.3699 42.7003C30.3299 42.8103 30.3499 43.0103 30.2999 43.1203C30.2799 43.1703 30.2199 43.1703 30.1799 43.1803C30.2699 43.2803 30.4099 43.3503 30.5199 43.3803C30.6099 43.4103 30.9899 43.7003 31.0799 43.7203C31.1399 43.7303 31.1899 43.7103 31.2499 43.7203C31.2299 43.9403 31.1999 43.8303 31.3299 43.9403C31.4199 44.0103 31.4899 44.0403 31.5799 44.1003C31.6599 44.1503 31.7299 44.2703 31.8199 44.2903C31.8199 44.2703 31.6899 43.9903 31.6899 43.9703C31.7899 43.9903 31.9899 44.3503 32.0899 44.3503C32.1899 44.3503 32.2999 44.3403 32.2999 44.5403C32.4599 44.5403 32.6099 44.7303 32.7599 44.8103C32.8999 44.8803 33.0799 45.0903 33.2199 45.1003C33.0899 45.3603 32.9499 45.6103 32.7199 45.7503C32.5399 45.8603 32.4399 45.8503 32.2399 45.8803C32.2099 45.8803 32.1799 45.9303 32.1499 45.9303C32.1199 45.9303 32.0899 45.9003 32.0599 45.9003C32.0099 45.8803 31.9099 46.0103 31.9099 45.9203C31.7599 45.8803 31.5699 45.8903 31.4399 45.7603C31.2899 45.6203 31.1299 45.4503 30.9599 45.2903C30.8699 45.2003 30.7899 45.3003 30.7299 45.1903C30.7099 45.1503 30.7099 45.0903 30.6799 45.0503C30.6599 45.0203 30.6299 44.9003 30.6099 44.8803C30.5499 44.7603 30.4999 44.5103 30.4899 44.3703C30.4899 44.5403 30.4399 44.7103 30.4199 44.8703C30.3999 45.0303 30.4099 45.2003 30.3899 45.3603C30.3599 45.6703 30.2899 46.0103 30.1899 46.2803C30.2899 46.1803 30.3399 46.0403 30.4799 46.0103C30.6399 45.9703 30.7599 46.1003 30.9099 46.1403C31.1499 46.2003 31.3699 46.3803 31.5999 46.4303C31.7399 46.4603 31.8699 46.4503 32.0099 46.5203V46.5303C32.2099 46.5303 32.3899 46.4603 32.5999 46.4603C32.8699 46.4603 33.1199 46.3003 33.3599 46.1603C33.4699 46.0903 33.5199 45.9803 33.6299 45.9003C33.7399 45.8203 33.7799 45.7703 33.8599 45.6603C33.9799 45.5003 34.1399 45.3903 34.1199 45.1103C34.2099 45.1103 34.2799 44.8703 34.3099 44.7703C34.3399 44.6703 34.3299 44.7703 34.3799 44.7003C34.4299 44.6403 34.5599 44.4303 34.6199 44.4203C34.4799 44.3603 34.3599 44.2203 34.2199 44.1503C34.0099 44.0403 33.7999 43.9703 33.5899 43.8503L33.6199 43.8203ZM30.1599 43.1703C30.1599 43.1703 30.1799 43.1603 30.1999 43.1503C30.1999 43.1503 30.1799 43.1303 30.1799 43.1203V43.1703H30.1599ZM1.16992 43.5103C1.16992 43.5103 1.19992 43.4803 1.20992 43.4603L1.16992 43.5103ZM6.21992 45.3703C6.11992 45.4803 5.98992 45.5703 5.87992 45.6503C5.80992 45.7003 5.73992 45.7503 5.66992 45.7603C5.61992 45.7703 5.57992 45.7303 5.51992 45.7603C5.51992 45.8003 5.49992 45.8303 5.49992 45.8703C5.43992 45.8703 5.36992 45.8803 5.30992 45.8903L4.99992 45.8603C4.99992 45.8603 4.97992 45.8503 4.96992 45.8403C4.92992 45.8203 4.88992 45.8203 4.83992 45.8103V45.8503H4.74992C4.51992 45.8503 4.22992 45.7203 4.02992 45.6003C3.90992 45.5303 3.83992 45.3803 3.71992 45.3203C3.64992 45.2803 3.55992 45.3203 3.48992 45.2603C3.45992 45.2403 3.45992 45.1803 3.43992 45.1603C3.21992 44.8903 2.94992 44.7103 2.83992 44.3103C2.76992 44.0503 2.75992 43.6803 2.60992 43.4703C2.68992 43.3803 2.69992 43.2503 2.75992 43.1403C2.80992 43.0403 2.87992 42.9503 2.94992 42.8603C3.14992 42.6003 3.36992 42.4203 3.61992 42.2703C3.83992 42.1403 4.06992 42.0203 4.30992 41.9603C4.35992 41.9503 4.39992 41.9403 4.43992 41.9203C4.48992 41.9003 4.48992 41.8603 4.55992 41.8503C4.68992 41.8303 4.82992 41.8903 4.96992 41.8903C4.96992 41.9303 4.98992 41.9603 4.98992 42.0003C5.04992 42.0403 5.07992 42.0003 5.13992 42.0003C5.20992 42.0103 5.27992 42.0703 5.34992 42.1103C5.46992 42.1903 5.58992 42.2803 5.68992 42.3903C5.79992 42.5103 5.85992 42.6603 5.95992 42.7803C6.04992 42.8803 6.15992 42.9203 6.22992 43.0203C6.16992 42.6603 6.06992 42.2903 6.02992 41.9203C6.00992 41.7203 5.90992 41.5503 5.83992 41.3803C5.79992 41.2703 5.72992 40.8503 5.64992 40.7903C5.49992 41.0603 5.48992 41.2803 5.22992 41.2803C4.97992 41.2803 4.73992 41.2003 4.48992 41.2103C4.24992 41.2203 4.04992 41.1603 3.80992 41.1903C3.70992 41.2003 3.61992 41.2603 3.51992 41.2903C3.44992 41.3103 3.31992 41.2903 3.27992 41.3103C3.05992 41.3403 2.86992 41.5803 2.66992 41.6803C2.68992 41.7903 2.70992 41.9103 2.83992 41.9403C2.78992 41.9403 2.47992 41.8203 2.43992 41.8303C2.40992 41.8303 2.36992 41.8903 2.33992 41.9103C2.13992 42.0503 2.08992 42.2503 1.95992 42.4603C1.90992 42.5403 1.85992 42.5603 1.80992 42.6303C1.73992 42.7203 1.70992 42.8503 1.65992 42.9803C1.57992 43.2103 1.35992 43.2903 1.19992 43.4603C1.26992 43.5503 1.42992 43.8003 1.46992 43.9003C1.50992 44.0203 1.58992 44.1203 1.61992 44.2403C1.65992 44.4003 1.64992 44.4803 1.72992 44.5903C1.80992 44.7003 1.85992 44.8303 1.91992 44.9703C1.98992 45.1503 2.07992 45.3303 2.16992 45.5003C2.26992 45.6803 2.33992 45.7303 2.48992 45.8403C2.71992 46.0003 2.89992 46.1603 3.13992 46.2703C3.22992 46.5203 3.63992 46.6203 3.82992 46.6003C4.06992 46.5703 4.31992 46.5903 4.56992 46.5703C4.71992 46.5603 4.86992 46.5103 5.01992 46.5103V46.5503C5.12992 46.5503 5.22992 46.5503 5.32992 46.5303C5.42992 46.5403 5.52992 46.5503 5.62992 46.5403C5.71992 46.5403 5.79992 46.5103 5.88992 46.4803C6.05992 46.5003 6.11992 46.5703 6.22992 46.7803C6.30992 46.7203 6.33992 46.4703 6.37992 46.3603C6.38992 46.3303 6.39992 46.3003 6.41992 46.2703C6.43992 46.2703 6.44992 46.2703 6.46992 46.2703C6.45992 46.2603 6.44992 46.2503 6.42992 46.2403C6.48992 46.1103 6.54992 45.9703 6.55992 45.8203C6.59992 45.4503 6.69992 45.0803 6.74992 44.7203C6.67992 44.8303 6.56992 44.8703 6.47992 44.9703C6.36992 45.0903 6.31992 45.2403 6.20992 45.3603L6.21992 45.3703ZM46.8999 45.2203C46.7899 45.3403 46.7399 45.2503 46.6299 45.3803C46.5299 45.4903 46.4099 45.5803 46.2899 45.6603C46.2199 45.7103 46.1499 45.7603 46.0799 45.7703C46.0299 45.7803 45.9899 45.7403 45.9299 45.7703C45.9299 45.8103 45.9099 45.8403 45.9099 45.8803C45.8499 45.8803 45.7799 45.8903 45.7199 45.9003L45.4099 45.8703C45.4099 45.8703 45.3899 45.8603 45.3799 45.8503C45.3399 45.8403 45.2999 45.8303 45.2499 45.8203V45.8603H45.1599C44.9299 45.8603 44.6399 45.7303 44.4499 45.6103C44.3299 45.5403 44.2599 45.3903 44.1499 45.3303C44.0799 45.2903 43.9999 45.3303 43.9299 45.2703C43.8999 45.2503 43.8999 45.1903 43.8799 45.1703C43.6599 44.9003 43.3999 44.7303 43.2899 44.3203C43.2199 44.0603 43.2199 43.6903 43.0699 43.4803C43.1499 43.3903 43.1599 43.2603 43.2199 43.1503C43.2699 43.0503 43.3399 42.9603 43.3999 42.8703C43.5999 42.6103 43.8099 42.4303 44.0599 42.2903C44.2799 42.1603 44.4999 42.0403 44.7399 41.9803C44.7899 41.9703 44.8299 41.9603 44.8699 41.9403C44.9199 41.9203 44.9199 41.8803 44.9899 41.8703C45.1199 41.8503 45.4699 41.9203 45.6099 41.9203C45.6099 41.9603 45.4199 41.9803 45.4099 42.0203C45.4699 42.0603 45.4999 42.0203 45.5599 42.0203C45.6299 42.0303 45.6999 42.0903 45.7699 42.1303C45.8899 42.2103 46.0099 42.3003 46.1099 42.4103C46.2199 42.5303 46.2799 42.6803 46.3799 42.8003C46.4699 42.9003 46.5799 42.9403 46.6499 43.0403C46.5999 42.6803 46.4999 42.3103 46.4499 41.9503C46.4299 41.7503 46.3299 41.5803 46.2599 41.4103C46.2199 41.3003 46.1799 41.0603 46.1099 41.0003C45.9699 41.2603 45.9099 41.3103 45.6499 41.3103C45.3999 41.3103 45.1599 41.2303 44.9199 41.2403C44.6799 41.2503 44.4899 41.1903 44.2399 41.2203C44.1399 41.2303 44.0499 41.2903 43.9499 41.3203C43.8799 41.3403 43.7599 41.3203 43.7099 41.3403C43.4899 41.3703 43.3099 41.6103 43.0999 41.7103C43.1099 41.8203 42.9199 41.8503 42.8799 41.8603C42.8499 41.8603 42.8099 41.9203 42.7799 41.9403C42.5899 42.0803 42.5699 42.6203 42.4399 42.8303C42.3899 42.9103 42.4699 42.2803 42.4199 42.3403C42.3499 42.4303 42.1599 42.8703 42.1099 43.0003C42.0199 43.2503 41.9299 43.4203 41.7899 43.6303L41.7399 43.7603C41.8099 43.8403 41.8899 43.8203 41.9299 43.9303C41.9699 44.0503 42.0499 44.1503 42.0799 44.2703C42.1199 44.4303 42.1099 44.5103 42.1899 44.6203C42.2699 44.7303 42.3199 44.8603 42.3699 45.0003C42.4399 45.1803 42.5299 45.3603 42.6199 45.5303C42.7199 45.7103 42.7899 45.7603 42.9299 45.8603C43.1599 46.0203 43.3299 46.1803 43.5799 46.2903C43.6699 46.5403 44.0699 46.6403 44.2599 46.6203C44.4999 46.5903 44.7499 46.6103 44.9899 46.5903C45.1399 46.5803 45.2799 46.5303 45.4299 46.5303V46.5703C45.5399 46.5703 45.6399 46.5703 45.7399 46.5503C45.8399 46.5603 45.9399 46.5703 46.0399 46.5603C46.1299 46.5603 46.2099 46.5303 46.2899 46.5003C46.4499 46.5203 46.5099 46.5903 46.6299 46.8003C46.7099 46.7403 46.7399 46.4903 46.7799 46.3803C46.7899 46.3503 46.7999 46.3203 46.8099 46.2903C46.8299 46.2903 46.8399 46.2903 46.8599 46.2903C46.8499 46.2803 46.8399 46.2703 46.8199 46.2603C46.8799 46.1303 46.9399 46.0003 46.9499 45.8403C46.9899 45.4703 47.0899 45.1003 47.1399 44.7503C47.0699 44.8603 46.9599 45.1303 46.8699 45.2303L46.8999 45.2203Z" fill="#FEAF51"/>
</g>
<defs>
<clipPath id="clip0_1641_233">
<rect width="48" height="48" fill="white"/>
</clipPath>
</defs>
</svg>
